{
  "accessors": [
    {
      "bufferView": 2,
      "componentType": 5126,
      "count": 25539,
      "max": [
        1.365557074546814,
        1.9443987607955933,
        2.1173596382141113
      ],
      "min": [
        -1.365557074546814,
        -1.3752923011779785,
        -1.0639040470123291
      ],
      "type": "VEC3"
    },
    {
      "bufferView": 2,
      "byteOffset": 306468,
      "componentType": 5126,
      "count": 25539,
      "max": [
        0.99998337030410767,
        0.99999892711639404,
        0.99997669458389282
      ],
      "min": [
        -0.99998337030410767,
        -0.99984920024871826,
        -0.9999731183052063
      ],
      "type": "VEC3"
    },
    {
      "bufferView": 1,
      "componentType": 5126,
      "count": 25539,
      "max": [
        1.0697180032730103,
        0.99595892429351807
      ],
      "min": [
        -0.1094982922077179,
        0.0040425956249237061
      ],
      "type": "VEC2"
    },
    {
      "bufferView": 0,
      "componentType": 5125,
      "count": 148764,
      "max": [
        25538
      ],
      "min": [
        0
      ],
      "type": "SCALAR"
    }
  ],
  "asset": {
    "extras": {
      "author": "riach (https://sketchfab.com/riach)",
      "license": "CC-BY-4.0 (http://creativecommons.org/licenses/by/4.0/)",
      "source": "https://sketchfab.com/3d-models/free-human-skull-6a3c0f1b165a489db40c11912efe59c5",
      "title": "Free Human Skull"
    },
    "generator": "Sketchfab-9.99.1",
    "version": "2.0"
  },
  "bufferViews": [
    {
      "buffer": 0,
      "byteLength": 595056,
      "byteOffset": 0,
      "name": "floatBufferViews",
      "target": 34963
    },
    {
      "buffer": 0,
      "byteLength": 204312,
      "byteOffset": 595056,
      "byteStride": 8,
      "name": "floatBufferViews",
      "target": 34962
    },
    {
      "buffer": 0,
      "byteLength": 612936,
      "byteOffset": 799368,
      "byteStride": 12,
      "name": "floatBufferViews",
      "target": 34962
    }
  ],
  "buffers": [
    {
      "byteLength": 1412304,
      "uri": "scene.bin"
    }
  ],
  "materials": [
    {
      "doubleSided": true,
      "emissiveFactor": [
        0,
        0,
        0
      ],
      "name": "01_-_Default",
      "pbrMetallicRoughness": {
        "baseColorFactor": [
          0.0023889938387433628,
          0.0023889938387433628,
          0.0023889938387433628,
          1
        ],
        "metallicFactor": 0.64012823085201465,
        "roughnessFactor": 0.20786744006469304
      }
    }
  ],
  "meshes": [
    {
      "name": "Quad Sphere.001_01 - Default_0",
      "primitives": [
        {
          "attributes": {
            "NORMAL": 1,
            "POSITION": 0,
            "TEXCOORD_0": 2
          },
          "indices": 3,
          "material": 0,
          "mode": 4
        }
      ]
    }
  ],
  "nodes": [
    {
      "children": [
        1
      ],
      "name": "RootNode (gltf orientation matrix)",
      "rotation": [
        -0.70710678118654746,
        -0,
        -0,
        0.70710678118654757
      ]
    },
    {
      "children": [
        2
      ],
      "name": "RootNode (model correction matrix)"
    },
    {
      "children": [
        3
      ],
      "matrix": [
        1,
        0,
        0,
        0,
        0,
        0,
        1,
        0,
        0,
        -1,
        0,
        0,
        0,
        0,
        0,
        1
      ],
      "name": "c22fdc0bbb6c4a15a77ef2a32be63b58.fbx"
    },
    {
      "children": [
        4
      ],
      "name": "RootNode"
    },
    {
      "children": [
        5
      ],
      "matrix": [
        37.735847473144531,
        0,
        0,
        0,
        0,
        -4.4984635678702034e-06,
        -37.735847473144268,
        0,
        0,
        37.735847473144268,
        -4.4984635678702034e-06,
        0,
        0,
        21.276607513427734,
        61.683662414550781,
        1
      ],
      "name": "Quad Sphere.001"
    },
    {
      "children": [
        6
      ],
      "matrix": [
        1,
        0,
        -0,
        0,
        0,
        1,
        0,
        0,
        0,
        0,
        1,
        0,
        0,
        1.5150284767150879,
        -0.6479107141494751,
        1
      ],
      "name": ""
    },
    {
      "mesh": 0,
      "name": "Quad Sphere.001_01 - Default_0"
    }
  ],
  "scene": 0,
  "scenes": [
    {
      "name": "OSG_Scene",
      "nodes": [
        0
      ]
    }
  ]
}

